# xmcd CD database file
#
# Track frame offsets:
#	150
#	18260
#	33300
#	50797
#	66298
#	85400
#	102404
#	118330
#	142350
#	159157
#	178043
#
# Disc length: 2627 seconds
#
# Revision: 1
# Processed by: cddbd v1.5.2PL0 Copyright (c) Steve Scherf et al.
# Submitted via: CDex 1.51
#
DISCID=9e0a410b
DTITLE=Kenny Rodgers - Water and Bridges
DYEAR=2007
DGENRE=Country
TTITLE0=Calling me
TTITLE1=Half a man
TTITLE2=I can feel you drifting
TTITLE3=I cant unlove you
TTITLE4=My petition
TTITLE5=One life
TTITLE6=Someone is me
TTITLE7=Someone somewhere
TTITLE8=The last ten years
TTITLE9=Water and bridges
TTITLE10=You'll know love
EXTD=YEAR: 2007
EXTT0=
EXTT1=
EXTT2=
EXTT3=
EXTT4=
EXTT5=
EXTT6=
EXTT7=
EXTT8=
EXTT9=
EXTT10=
PLAYORDER=
